# AST/ASF file generated using VICON BodyLanguage
# -----------------------------------------------
:version 1.10
:name VICON
:units
  mass 1.0
  length 0.45
  angle deg
:documentation
   .ast/.asf automatically generated from VICON data using
   VICON BodyBuilder and BodyLanguage model FoxedUp or BRILLIANT.MOD
:root
   order TX TY TZ RX RY RZ
   axis XYZ
   position 0 0 0  
   orientation 0 0 0 
:bonedata
  begin
     id 1 
     name lhipjoint
     direction 0.560651 -0.75055 0.34978 
     length 2.44936 
     axis 0 0 0  XYZ
  end
  begin
     id 2 
     name lfemur
     direction 0.34202 -0.939693 0  
     length 7.42139  
     axis 0 0 20  XYZ
    dof rx ry rz
    limits (-160.0 20.0)
           (-70.0 70.0)
           (-60.0 70.0)
  end
  begin
     id 3 
     name ltibia
     direction 0.34202 -0.939693 0   
     length 7.75674   
     axis 0 0 20   XYZ
    dof rx
    limits (-10.0 170.0)
  end
  begin
     id 4 
     name lfoot
     direction 0.0925879 -0.254383 0.962661   
     length 2.38688   
     axis -90 7.62852e-016 20   XYZ
    dof rx rz
    limits (-45.0 90.0)
           (-70.0 20.0)
  end
  begin
     id 5 
     name ltoes
     direction 1.53567e-011 -4.21973e-011 1   
     length 1.19228   
     axis -90 7.62852e-016 20   XYZ
    dof rx
    limits (-90.0 20.0)
  end
  begin
     id 6 
     name rhipjoint
     direction -0.540087 -0.762838 0.355506   
     length 2.4099  
     axis 0 0 0  XYZ 
  end
  begin
     id 7 
     name rfemur
     direction -0.34202 -0.939693 0   
     length 7.70794   
     axis 0 0 -20   XYZ
    dof rx ry rz
    limits (-160.0 20.0)
           (-70.0 70.0)
           (-70.0 60.0)
  end
  begin
     id 8 
     name rtibia
     direction -0.34202 -0.939693 0   
     length 7.66106   
     axis 0 0 -20   XYZ
    dof rx
    limits (-10.0 170.0)
 end
 begin
     id 9 
     name rfoot
     direction -0.0830975 -0.228308 0.970036   
     length 2.4989  
     axis -90 -7.62852e-016 -20   XYZ
    dof rx rz
    limits (-45.0 90.0)
           (-20.0 70.0)
  end
  begin
     id 10 
     name rtoes
     direction -1.53517e-011 -4.21842e-011 1   
     length 1.2498   
     axis -90 -7.62852e-016 -20   XYZ
    dof rx
    limits (-90.0 20.0)
  end
  begin
     id 11 
     name lowerback
     direction 0.0266356 0.99402 -0.105896   
     length 2.1545   
     axis 0 0 0   XYZ
    dof rx ry rz
    limits (-20.0 45.0)
           (-30.0 30.0)
           (-30.0 30.0)
  end
  begin
     id 12 
     name upperback
     direction 0.0130547 0.999192 0.0380027   
     length 2.1434   
     axis 0 0 0   XYZ
    dof rx ry rz
    limits (-20.0 45.0)
           (-30.0 30.0)
           (-30.0 30.0)
  end
  begin
     id 13 
     name thorax
     direction 0.000590299 0.996288 0.0860764   
     length 2.19049   
     axis 0 0 0   XYZ
    dof rx ry rz
    limits (-20.0 45.0)
           (-30.0 30.0)
           (-30.0 30.0)
  end
  begin
     id 14 
     name lowerneck
     direction -0.0432125 0.978219 0.203028   
     length 1.62441   
     axis 0 0 0   XYZ
    dof rx ry rz
    limits (-20.0 45.0)
           (-30.0 30.0)
           (-30.0 30.0)
  end
  begin
     id 15 
     name upperneck
     direction -0.0192309 0.991699 -0.127138   
     length 1.66666   
     axis 0 0 0   XYZ
    dof rx ry rz
    limits (-20.0 45.0)
           (-30.0 30.0)
           (-30.0 30.0)
  end
  begin
     id 16
     name head
     direction -0.00434499 0.997882 -0.0649107  
     length 1.67142  
     axis 0 0 0   XYZ
    dof rx ry rz
    limits (-20.0 45.0)
           (-30.0 30.0)
           (-30.0 30.0)
  end
  begin
     id 17 
     name lclavicle
     direction 0.970351 0.240904 -0.0196058  
     length 4.04862  
     axis 0 0 0   XYZ
    dof ry rz
    limits (-20.0 10.0)
           (0.0 20.0)
  end
  begin
     id 18 
     name lhumerus
     direction 1 -4.4896e-011 -1.40911e-018   
     length 5.58345   
     axis 180 -30 -90   XYZ
    dof rx ry rz
    limits (-60.0 90.0)
           (-90.0 90.0)
           (-90.0 90.0)
  end
  begin
     id 19
     name lradius
     direction 1 -4.48968e-011 5.88912e-028   
     length 3.71087   
     axis 180 -30 -90   XYZ
    dof rx
    limits (-10.0 170.0)
  end
  begin
     id 20
     name lwrist
     direction 1 -4.48955e-011 -8.83775e-028   
     length 1.85544   
     axis 5.52448e-016 90 90   XYZ
    dof ry
    limits (-180.0 0.0)
 end
  begin
     id 21 
     name lhand
     direction 1 -4.49035e-011 -1.76755e-027   
     length 0.562322   
     axis 1.12785e-015 90 90   XYZ
    dof rx rz
    limits (-90.0 90.0)
           (-45.0 45.0)
  end
  begin
     id 22 
     name lfingers
     direction 1 -4.48824e-011 -3.5351e-027   
     length 0.453359   
     axis 2.2557e-015 90 90   XYZ
    dof rx
    limits (0.0 90.0)
  end
  begin
     id 23
     name lthumb
     direction 0.707107 -6.34888e-011 0.707107   
     length 0.650935   
     axis -90 45 2.85299e-015   XYZ
    dof rx rz
    limits (-45.0 45.0)
           (-45.0 45.0)
  end
  begin
     id 24 
     name rclavicle
     direction -0.96165 0.268562 -0.0557131   
     length 4.05446  
     axis 0 0 0   XYZ 
    dof ry rz
    limits (-10.0 20.0)
           (-20.0 0.0)
  end
  begin
     id 25 
     name rhumerus
     direction -1 -4.48957e-011 -3.36329e-027  
     length 5.20357   
     axis 180 30 90   XYZ
    dof rx ry rz
    limits (-90.0 60.0)
           (-90.0 90.0)
           (-90.0 90.0)
  end
  begin
     id 26 
     name rradius
     direction -1 -4.48974e-011 4.51441e-027   
     length 3.64937   
     axis 180 30 90   XYZ
    dof rx
    limits (-10.0 170.0)
  end
  begin
     id 27 
     name rwrist
     direction -1 -4.4896e-011 -8.83775e-028   
     length 1.82468   
     axis 5.52448e-016 -90 -90   XYZ
    dof ry
    limits (-180.0 0.0)
  end
  begin
     id 28
     name rhand
     direction -1 -4.48996e-011 -1.76755e-027   
     length 0.617996   
     axis 1.12785e-015 -90 -90   XYZ
    dof rx rz
    limits (-90.0 90.0)
           (-45.0 45.0)
  end
  begin
     id 29
     name rfingers
     direction -1 -4.48957e-011 -3.5351e-027   
     length 0.498244   
     axis 2.2557e-015 -90 -90   XYZ
    dof rx
    limits (0.0 90.0)
  end
  begin
     id 30
     name rthumb
     direction -0.707107 -6.34931e-011 0.707107   
     length 0.715382   
     axis -90 -45 -2.85299e-015   XYZ
    dof rx rz
    limits (-45.0 45.0)
           (-45.0 45.0)
  end
:hierarchy
  begin
    root lhipjoint rhipjoint lowerback
    lhipjoint lfemur
    lfemur ltibia
    ltibia lfoot
    lfoot ltoes
    rhipjoint rfemur
    rfemur rtibia
    rtibia rfoot
    rfoot rtoes
    lowerback upperback
    upperback thorax
    thorax lowerneck lclavicle rclavicle
    lowerneck upperneck
    upperneck head
    lclavicle lhumerus
    lhumerus lradius
    lradius lwrist
    lwrist lhand lthumb
    lhand lfingers
    rclavicle rhumerus
    rhumerus rradius
    rradius rwrist
    rwrist rhand rthumb
    rhand rfingers
  end

#!OML:ASF H:\ManfredETheater\Project 1\Capture day 2\Session 1\Male1.ASF
:FULLY-SPECIFIED
:DEGREES
222
root -12.1203 8.99895 -20.7158 211.422 -11.1233 166.014
lowerback 43.9158 -2.61223 6.85628
upperback 11.319 -3.8549 1.69545
thorax -7.84829 -3.16176 0.126031
lowerneck -18.7937 5.41637 -4.14543
upperneck -4.81496 7.18546 -16.4143
head 2.08591 2.40341 -3.87976
rclavicle 2.06736e-014 -1.74931e-014
rhumerus 6.3583 -13.2786 -62.4642
rradius 9.58716
rwrist 38.5854
rhand -57.3351 -30.023
rfingers 7.12502
rthumb -29.6113 -417.68
lclavicle 2.06736e-014 -1.74931e-014
lhumerus 50.6826 -17.8437 83.7155
lradius 29.8999
lwrist -22.1481
lhand -21.4109 16.8532
lfingers 7.12502
lthumb 4.97763 46.7748
rfemur -114.533 -23.1333 74.5871
rtibia 136.298
rfoot -30.6727 21.0303
rtoes -24.7763
lfemur -128.167 21.9229 -36.9433
ltibia 127.454
lfoot -9.22376 -34.3865
ltoes 10.1861
223
root -12.2122 9.13807 -20.789 212.058 -10.7895 166.441
lowerback 44.0604 -2.56387 7.0497
upperback 11.3704 -3.72555 1.73091
thorax -7.82086 -3.1054 0.0159782
lowerneck -18.61 5.46692 -4.24526
upperneck -5.34249 7.14769 -16.5237
head 1.89613 2.41151 -3.90756
rclavicle -3.02153e-014 3.22031e-014
rhumerus 7.34086 -14.2759 -62.7679
rradius 9.41401
rwrist 38.8313
rhand -56.8719 -29.8293
rfingers 7.12502
rthumb -29.1691 -417.564
lclavicle -3.02153e-014 3.22031e-014
lhumerus 50.9477 -17.9308 84.4745
lradius 29.6393
lwrist -23.4992
lhand -22.5334 16.2763
lfingers 7.12502
lthumb 3.89367 46.2205
rfemur -114.061 -22.2146 73.4008
rtibia 135.876
rfoot -30.7654 19.9547
rtoes -25.4884
lfemur -127.469 21.6042 -36.5957
ltibia 127.022
lfoot -10.3337 -34.0413
ltoes 10.0012
224
root -12.3024 9.27916 -20.859 212.563 -10.4673 166.955
lowerback 44.2817 -2.56996 7.27514
upperback 11.4363 -3.6635 1.72309
thorax -7.80157 -3.08352 -0.124148
lowerneck -18.4082 5.57313 -4.25664
upperneck -5.92462 7.15943 -16.6368
head 1.69422 2.44851 -3.94732
rclavicle -3.81667e-014 -3.29983e-014
rhumerus 8.4379 -15.1182 -63.2438
rradius 9.34299
rwrist 39.0011
rhand -56.3387 -29.6021
rfingers 7.12502
rthumb -28.6599 -417.424
lclavicle -3.81667e-014 -3.29983e-014
lhumerus 51.2378 -17.9291 84.9175
lradius 29.4417
lwrist -24.4004
lhand -23.7355 15.6527
lfingers 7.12502
lthumb 2.73282 45.6149
rfemur -113.454 -21.3065 72.215
rtibia 135.425
rfoot -30.7765 18.8309
rtoes -26.0903
lfemur -126.665 21.3737 -36.1339
ltibia 126.555
lfoot -11.4594 -33.6936
ltoes 9.66802
225
root -12.3898 9.42159 -20.9255 212.957 -10.133 167.555
lowerback 44.5708 -2.60165 7.48465
upperback 11.5084 -3.64935 1.68366
thorax -7.79577 -3.08707 -0.266047
lowerneck -18.2022 5.72194 -4.22332
upperneck -6.52757 7.21961 -16.7275
head 1.48928 2.5126 -3.98428
rclavicle 3.18055e-015 -5.12864e-014
rhumerus 9.65324 -15.7949 -63.8841
rradius 9.35825
rwrist 39.109
rhand -55.687 -29.2975
rfingers 7.12502
rthumb -28.0371 -417.223
lclavicle 3.18055e-015 -5.12864e-014
lhumerus 51.5701 -17.8733 84.9592
lradius 29.3085
lwrist -24.8045
lhand -24.9665 15.1024
lfingers 7.12502
lthumb 1.54389 45.0766
rfemur -112.71 -20.339 71.025
rtibia 134.949
rfoot -30.6889 17.6331
rtoes -26.5422
lfemur -125.788 21.2596 -35.5806
ltibia 126.056
lfoot -12.5927 -33.3565
ltoes 9.18093
226
root -12.474 9.56496 -20.9884 213.255 -9.77222 168.232
lowerback 44.9241 -2.63972 7.6425
upperback 11.5772 -3.67031 1.62479
thorax -7.8121 -3.11017 -0.383944
lowerneck -17.9952 5.90571 -4.17296
upperneck -7.13271 7.32708 -16.7927
head 1.2861 2.60194 -4.01342
rclavicle -1.59028e-015 8.15017e-015
rhumerus 10.9907 -16.2964 -64.6632
rradius 9.43439
rwrist 39.1607
rhand -54.8485 -28.8452
rfingers 7.12502
rthumb -27.2353 -416.899
lclavicle -1.59028e-015 8.15017e-015
lhumerus 51.8914 -17.7532 84.5996
lradius 29.286
lwrist -24.7929
lhand -26.1543 14.6906
lfingers 7.12502
lthumb 0.396695 44.67
rfemur -111.85 -19.2745 69.8332
rtibia 134.459
rfoot -30.4941 16.3449
rtoes -26.8622
lfemur -124.855 21.2646 -34.9644
ltibia 125.525
lfoot -13.707 -33.0305
ltoes 8.61531
227
root -12.5541 9.70815 -21.048 213.482 -9.35175 168.993
lowerback 45.3232 -2.64168 7.69435
upperback 11.6357 -3.69472 1.56383
thorax -7.85097 -3.13852 -0.4464
lowerneck -17.7787 6.11558 -4.12502
upperneck -7.73331 7.47408 -16.8308
head 1.08395 2.71281 -4.03213
rclavicle -3.18055e-015 9.93923e-015
rhumerus 12.4468 -16.6202 -65.557
rradius 9.55174
rwrist 39.1822
rhand -53.7362 -28.1715
rfingers 7.12502
rthumb -26.1707 -416.388
lclavicle -3.18055e-015 9.93923e-015
lhumerus 52.1886 -17.5551 83.8976
lradius 29.3248
lwrist -24.5062
lhand -27.2867 14.4149
lfingers 7.12502
lthumb -0.696964 44.3935
rfemur -110.876 -18.0457 68.6356
rtibia 133.964
rfoot -30.2125 14.9544
rtoes -27.0919
lfemur -123.917 21.4243 -34.3241
ltibia 124.97
lfoot -14.8027 -32.7077
ltoes 7.96749
228
root -12.6305 9.85051 -21.1045 213.661 -8.87278 169.835
lowerback 45.7439 -2.60115 7.63541
upperback 11.6775 -3.71495 1.50964
thorax -7.91264 -3.16778 -0.44599
lowerneck -17.5514 6.3451 -4.09617
upperneck -8.31507 7.65814 -16.8339
head 0.8855 2.84396 -4.03569
rclavicle 7.95139e-015 2.62396e-014
rhumerus 14.0061 -16.7601 -66.5584
rradius 9.70062
rwrist 39.2086
rhand -52.2774 -27.3139
rfingers 7.12502
rthumb -24.7734 -415.729
lclavicle 7.95139e-015 2.62396e-014
lhumerus 52.4308 -17.2502 82.9571
lradius 29.3928
lwrist -24.0801
lhand -28.3169 14.2815
lfingers 7.12502
lthumb -1.69197 44.2546
rfemur -109.827 -16.6404 67.4367
rtibia 133.48
rfoot -29.8668 13.5269
rtoes -27.2339
lfemur -123.001 21.7251 -33.6782
ltibia 124.399
lfoot -15.8768 -32.3623
ltoes 7.2621
229
root -12.704 9.99057 -21.1582 213.818 -8.35928 170.753
lowerback 46.1358 -2.5221 7.48973
upperback 11.7056 -3.72614 1.4709
thorax -7.9802 -3.19415 -0.390472
lowerneck -17.3036 6.58715 -4.07544
upperneck -8.8764 7.86749 -16.81
head 0.689861 2.98949 -4.02947
rclavicle -6.67916e-014 7.35503e-015
rhumerus 15.6574 -16.7273 -67.6234
rradius 9.85726
rwrist 39.2593
rhand -50.4083 -26.2744
rfingers 7.12502
rthumb -22.9809 -414.925
lclavicle -6.67916e-014 7.35503e-015
lhumerus 52.6029 -16.8283 81.8964
lradius 29.4571
lwrist -23.6116
lhand -29.2136 14.252
lfingers 7.12502
lthumb -2.55798 44.2164
rfemur -108.759 -15.0747 66.2544
rtibia 133.032
rfoot -29.5188 12.1156
rtoes -27.368
lfemur -122.14 22.1303 -33.0336
ltibia 123.827
lfoot -16.9575 -31.9611
ltoes 6.44713
230
root -12.7743 10.1275 -21.2093 213.968 -7.8118 171.738
lowerback 46.4771 -2.39554 7.2536
upperback 11.7213 -3.71935 1.45073
thorax -8.04674 -3.21286 -0.279779
lowerneck -17.1109 6.83123 -4.11145
upperneck -9.27887 8.14571 -16.4127
head 0.490948 3.16525 -4.29977
rclavicle 7.4743e-014 -1.67973e-014
rhumerus 17.3768 -16.556 -68.7347
rradius 10.0279
rwrist 39.3994
rhand -48.0729 -25.1193
rfingers 7.12502
rthumb -20.7385 -414.031
lclavicle 7.4743e-014 -1.67973e-014
lhumerus 52.7034 -16.2861 80.8185
lradius 29.4832
lwrist -23.1444
lhand -29.9448 14.3087
lfingers 7.12502
lthumb -3.26419 44.2634
rfemur -107.698 -13.359 65.0775
rtibia 132.638
rfoot -29.2221 10.7831
rtoes -27.5506
lfemur -121.348 22.635 -32.4043
ltibia 123.257
lfoot -18.0089 -31.4982
ltoes 5.60957
231
root -12.8429 10.2614 -21.2569 214.106 -7.30078 172.773
lowerback 46.7642 -2.28168 7.01571
upperback 11.7218 -3.72607 1.44246
thorax -8.11627 -3.23634 -0.151472
lowerneck -16.8714 7.09155 -4.10375
upperneck -9.72322 8.4156 -16.328
head 0.313361 3.33713 -4.26253
rclavicle -4.77083e-015 -1.93815e-015
rhumerus 19.161 -16.4118 -69.9327
rradius 10.2184
rwrist 39.8779
rhand -45.1122 -23.9247
rfingers 7.12502
rthumb -17.8916 -413.122
lclavicle -4.77083e-015 -1.93815e-015
lhumerus 52.7169 -15.6305 79.755
lradius 29.4748
lwrist -22.6495
lhand -30.4919 14.4081
lfingers 7.12502
lthumb -3.79248 44.3541
rfemur -106.703 -11.5928 63.9191
rtibia 132.323
rfoot -29.0261 9.61328
rtoes -27.8002
lfemur -120.595 23.1485 -31.7487
ltibia 122.692
lfoot -19.0607 -30.9431
ltoes 4.71524
232
root -12.9097 10.3916 -21.3008 214.247 -6.83337 173.836
lowerback 46.9773 -2.1873 6.78177
upperback 11.7092 -3.75091 1.43976
thorax -8.18266 -3.26525 -0.0141452
lowerneck -16.6391 7.36176 -4.08318
upperneck -10.1241 8.71171 -16.208
head 0.152481 3.52138 -4.21426
rclavicle 1.27222e-014 -1.2275e-014
rhumerus 21.0108 -16.4231 -71.2546
rradius 10.4257
rwrist 40.9329
rhand -41.4946 -22.7079
rfingers 7.12502
rthumb -14.4082 -412.188
lclavicle 1.27222e-014 -1.2275e-014
lhumerus 52.6484 -14.8691 78.7636
lradius 29.407
lwrist -22.1385
lhand -30.8575 14.4954
lfingers 7.12502
lthumb -4.14549 44.4348
rfemur -105.815 -9.79813 62.7556
rtibia 132.104
rfoot -28.9491 8.64178
rtoes -28.1391
lfemur -119.886 23.6462 -31.0767
ltibia 122.128
lfoot -20.0681 -30.3041
ltoes 3.88786
233
root -12.9739 10.518 -21.3407 214.373 -6.43645 174.908
lowerback 47.1418 -2.13095 6.57799
upperback 11.6833 -3.80303 1.43902
thorax -8.25306 -3.30375 0.120682
lowerneck -16.4248 7.64171 -4.04162
upperneck -10.4796 9.03369 -16.0499
head 0.0107894 3.71665 -4.15488
rclavicle 1.78906e-014 -2.90226e-014
rhumerus 22.9011 -16.4132 -72.6149
rradius 10.6351
rwrist 42.5385
rhand -37.2333 -21.5818
rfingers 7.12502
rthumb -10.2997 -411.31
lclavicle 1.78906e-014 -2.90226e-014
lhumerus 52.5293 -14.031 77.8341
lradius 29.2565
lwrist -21.5793
lhand -31.0454 14.5509
lfingers 7.12502
lthumb -4.327 44.4867
rfemur -105.044 -8.04301 61.5802
rtibia 131.993
rfoot -29.006 7.87978
rtoes -28.5626
lfemur -119.183 24.1005 -30.3688
ltibia 121.558
lfoot -21.038 -29.5973
ltoes 3.13298
234
root -13.0347 10.6407 -21.3767 214.487 -6.10828 175.96
lowerback 48.1838 -2.23716 6.48694
upperback 10.6773 -3.84965 1.34897
thorax -8.28755 -3.35624 0.244204
lowerneck -16.1673 5.97556 -3.40613
upperneck -11.3064 9.55167 -15.5868
head -0.246735 5.73708 -4.09397
rclavicle 1.37161e-014 -3.59676e-014
rhumerus 24.7944 -16.1194 -73.867
rradius 10.8129
rwrist 44.6124
rhand -32.3443 -20.4973
rfingers 7.12502
rthumb -5.58114 -410.404
lclavicle 1.37161e-014 -3.59676e-014
lhumerus 52.3576 -13.1336 76.9502
lradius 29.0304
lwrist -20.9863
lhand -31.1022 14.5481
lfingers 7.12502
lthumb -4.38181 44.4828
rfemur -104.412 -6.3563 60.3672
rtibia 131.998
rfoot -29.1685 7.27466
rtoes -29.0173
lfemur -118.47 24.4961 -29.6359
ltibia 120.972
lfoot -21.9648 -28.8341
ltoes 2.44568
235
root -13.0909 10.7596 -21.4086 214.587 -5.8338 176.97
lowerback 48.2713 -2.24861 6.30662
upperback 10.6241 -3.96421 1.33701
thorax -8.36576 -3.41628 0.371996
lowerneck -16.0026 6.32368 -3.33239
upperneck -11.5981 9.89993 -15.348
head -0.361445 5.91114 -4.01523
rclavicle -1.91827e-014 1.50455e-014
rhumerus 26.6379 -15.3233 -74.8457
rradius 10.9433
rwrist 47.0644
rhand -26.9553 -19.3216
rfingers 7.12502
rthumb -0.376935 -409.301
lclavicle -1.91827e-014 1.50455e-014
lhumerus 52.1574 -12.2036 76.1061
lradius 28.7131
lwrist -20.3873
lhand -31.0016 14.5116
lfingers 7.12502
lthumb -4.28471 44.4482
rfemur -103.928 -4.75742 59.0964
rtibia 132.119
rfoot -29.3967 6.74849
rtoes -29.4412
lfemur -117.735 24.837 -28.892
ltibia 120.36
lfoot -22.832 -28.0541
ltoes 1.92089
